<svg xmlns="http://www.w3.org/2000/svg" width="21.245" height="21.265" viewBox="0 0 21.245 21.265">
  <g id="Group_138" data-name="Group 138" transform="translate(-177 -757.499)">
    <path id="Path_983" data-name="Path 983" d="M2171.5,1385.929v-.954c.012-.053.026-.106.037-.159a12.1,12.1,0,0,1,.285-1.311,7.384,7.384,0,0,1,3.644-4.2,9.782,9.782,0,0,1,6.9-.991,8.649,8.649,0,0,1,5.281,3.217,6.193,6.193,0,0,1,.459,7.131,8.43,8.43,0,0,1-7.292,4.223c-2.832.078-5.667.012-8.5.022a.785.785,0,0,1-.815-.462v-.332c.114-.153.22-.313.344-.457.473-.548.951-1.092,1.434-1.644-.041-.052-.076-.1-.116-.149a6.819,6.819,0,0,1-1.475-2.879C2171.6,1386.636,2171.561,1386.28,2171.5,1385.929Zm6.222-.58a1.244,1.244,0,1,0-1.24,1.243A1.247,1.247,0,0,0,2177.722,1385.349Zm2.522-1.245a1.244,1.244,0,1,0,1.254,1.229A1.246,1.246,0,0,0,2180.244,1384.1Zm5.029,1.245a1.244,1.244,0,1,0-1.24,1.242A1.248,1.248,0,0,0,2185.273,1385.35Z" transform="translate(-1994.5 -614.157)" fill="#c2c2c2"/>
    <path id="Path_984" data-name="Path 984" d="M2271.483,1262c.464.069.933.111,1.39.211a7.889,7.889,0,0,1,5.026,3.212,5.95,5.95,0,0,1-.375,7.357l-.144.174.592.693c.274.32.547.641.824.959a.633.633,0,0,1-.493,1.085c-.593,0-1.187,0-1.774,0-.058-.453-.089-.894-.175-1.324a8.036,8.036,0,0,0-2.534-4.418,10.368,10.368,0,0,0-5.656-2.64,11.4,11.4,0,0,0-5.18.428c-.037.012-.075.018-.184.044.147-.441.252-.848.417-1.23a7.114,7.114,0,0,1,3.274-3.453,8.952,8.952,0,0,1,3.629-1.065,1.154,1.154,0,0,0,.159-.034Z" transform="translate(-2080.75 -504.5)" fill="#c2c2c2"/>
  </g>
</svg>
