<svg xmlns="http://www.w3.org/2000/svg" width="18.878" height="21.526" viewBox="0 0 18.878 21.526">
  <g id="Group_137" data-name="Group 137" transform="translate(348.39 -5.04)">
    <path id="Path_985" data-name="Path 985" d="M-293.078,5.04c.506.095,1.023.152,1.517.291a6.708,6.708,0,0,1,3.45,2.3,6.651,6.651,0,0,1,1.364,2.822,6.684,6.684,0,0,1-.871,5.153c-1.732,2.74-3.5,5.459-5.247,8.187-.026.041-.052.083-.08.123a.627.627,0,0,1-1.1,0c-.327-.5-.643-1-.963-1.5-1.444-2.253-2.895-4.5-4.329-6.759a6.653,6.653,0,0,1-.974-4.836,6.886,6.886,0,0,1,5.428-5.631c.319-.069.647-.1.971-.142Zm-.411,3.777a3.157,3.157,0,0,0-3.156,3.143,3.157,3.157,0,0,0,3.127,3.15,3.157,3.157,0,0,0,3.166-3.132A3.157,3.157,0,0,0-293.488,8.817Z" transform="translate(-45.451)" fill="#c2c2c2"/>
    <path id="Path_986" data-name="Path 986" d="M-338.954,288.366a23.081,23.081,0,0,1-5.62-.756,7.749,7.749,0,0,1-2.878-1.356,2.356,2.356,0,0,1-.887-1.288,1.872,1.872,0,0,1,.5-1.739,5.2,5.2,0,0,1,2.158-1.362c.529-.2,1.079-.335,1.615-.512.152-.05.219-.006.3.119,1,1.567,2.005,3.129,3,4.7a2.057,2.057,0,0,0,1.655,1.036,1.95,1.95,0,0,0,1.794-.8c.3-.408.564-.85.839-1.279q1.171-1.826,2.336-3.656a.226.226,0,0,1,.3-.117,10.647,10.647,0,0,1,2.73,1.04,3.813,3.813,0,0,1,1.239,1.079,1.865,1.865,0,0,1-.166,2.389,5.316,5.316,0,0,1-1.942,1.284,14.8,14.8,0,0,1-4.159,1.007C-337.071,288.252-338.014,288.3-338.954,288.366Z" transform="translate(0 -261.801)" fill="#c2c2c2"/>
  </g>
</svg>
