<svg xmlns="http://www.w3.org/2000/svg" width="22.644" height="18.87" viewBox="0 0 22.644 18.87">
  <g id="Group_139" data-name="Group 139" transform="translate(767.911 -62.215)">
    <path id="Path_987" data-name="Path 987" d="M-756.59,62.216h9.723a1.445,1.445,0,0,1,1.6,1.61q0,5.469,0,10.938a1.44,1.44,0,0,1-1.607,1.6c-1.768,0-3.536,0-5.3,0a.749.749,0,0,0-.638.3q-1.67,2.059-3.354,4.107c-.346.423-.49.423-.837,0-1.114-1.36-2.23-2.719-3.336-4.085a.8.8,0,0,0-.684-.325c-1.777.01-3.554.006-5.331,0a1.426,1.426,0,0,1-1.552-1.543q0-5.524,0-11.048a1.432,1.432,0,0,1,1.57-1.555Zm0,1.422a1.236,1.236,0,0,0-1.13.7c-.227.431-.447.866-.653,1.308a.422.422,0,0,1-.374.263c-.52.067-1.04.141-1.557.225a1.131,1.131,0,0,0-.8.544c-.2.323-.385.656-.566.991-.157.291-.308.586-.447.887a.385.385,0,0,1-.344.258c-.411.044-.822.106-1.229.179a1.046,1.046,0,0,0-.869.789,1.054,1.054,0,0,0,.315,1.107c.271.263.543.525.826.775a.365.365,0,0,1,.133.386c-.071.342-.128.687-.191,1.031a1.1,1.1,0,0,0,.387,1.139,1.094,1.094,0,0,0,1.243.119c.354-.175.708-.352,1.056-.54a.348.348,0,0,1,.378,0c.346.191.7.363,1.056.54a1.091,1.091,0,0,0,1.222-.1,1.093,1.093,0,0,0,.414-1.154c-.047-.253-.192-.563-.1-.746s.449-.251.66-.408a.875.875,0,0,1,1.144,0c.208.148.548.2.641.391s-.039.494-.087.745a1.1,1.1,0,0,0,.4,1.159,1.1,1.1,0,0,0,1.245.1c.361-.183.717-.375,1.084-.546a.4.4,0,0,1,.3,0c.375.175.737.376,1.109.558a1.086,1.086,0,0,0,1.219-.116,1.092,1.092,0,0,0,.4-1.134c-.061-.344-.118-.689-.19-1.031a.383.383,0,0,1,.143-.409q.434-.384.842-.8a1.037,1.037,0,0,0,.279-1.091,1.042,1.042,0,0,0-.854-.769c-.416-.075-.835-.142-1.255-.188a.364.364,0,0,1-.323-.243c-.167-.348-.339-.694-.524-1.033a4.035,4.035,0,0,1-.339-.521,1.223,1.223,0,0,0-1-.883c-.481-.082-.963-.153-1.448-.211a.5.5,0,0,1-.46-.312c-.191-.428-.409-.844-.627-1.26A1.244,1.244,0,0,0-756.592,63.638Z" transform="translate(0)" fill="#c2c2c2"/>
    <path id="Path_988" data-name="Path 988" d="M-705.39,101.276c-.009.334.217.469.508.324.535-.267,1.067-.54,1.593-.824a.657.657,0,0,1,.678,0c.5.27,1.006.538,1.521.782a.537.537,0,0,0,.446.026.543.543,0,0,0,.107-.436c-.075-.546-.169-1.091-.282-1.631a.641.641,0,0,1,.219-.663c.412-.381.822-.767,1.212-1.17a.548.548,0,0,0,.164-.416c-.024-.1-.229-.193-.367-.216-.553-.1-1.11-.168-1.667-.237a.687.687,0,0,1-.6-.418c-.242-.516-.5-1.026-.772-1.526a.508.508,0,0,0-.342-.248c-.1-.005-.252.134-.313.247-.267.493-.524.993-.757,1.5a.72.72,0,0,1-.636.446c-.557.066-1.114.142-1.666.237-.128.022-.316.117-.34.213a.511.511,0,0,0,.147.4c.4.409.814.8,1.232,1.19a.647.647,0,0,1,.218.664C-705.2,100.111-705.294,100.712-705.39,101.276Zm-1.881-3c-.2.39-.375.732-.545,1.078a.583.583,0,0,1-.485.355c-.465.058-.929.129-1.391.206a1.535,1.535,0,0,0-.314.127,1.407,1.407,0,0,0,.182.307q.469.467.961.911a.627.627,0,0,1,.2.644q-.132.662-.239,1.329a.333.333,0,0,0,.057.267.321.321,0,0,0,.271-.012c.43-.208.857-.422,1.276-.65a.648.648,0,0,1,.676,0c.428.232.863.451,1.3.665.22.108.344.014.311-.224a3.507,3.507,0,0,0-.1-.513.288.288,0,0,0-.162-.173,1.257,1.257,0,0,1-1.027-1.626c.083-.442.162-.885.232-1.33a.327.327,0,0,0-.052-.248C-706.484,99.019-706.865,98.662-707.271,98.274Zm8.641,0c-.4.379-.763.715-1.108,1.071a.453.453,0,0,0-.085.336c.074.528.193,1.051.25,1.58a1.121,1.121,0,0,1-.821,1.25.523.523,0,0,0-.462.576.9.9,0,0,0-.02.108c.009.1-.008.247.05.295s.207.019.294-.022q.647-.31,1.28-.648a.612.612,0,0,1,.627,0c.422.224.848.443,1.279.65a.371.371,0,0,0,.3.015c.052-.029.062-.18.048-.269-.072-.445-.153-.888-.24-1.33a.608.608,0,0,1,.2-.621c.349-.314.688-.639,1.023-.968.065-.063.142-.182.122-.244s-.15-.123-.239-.137c-.481-.079-.964-.152-1.448-.21a.6.6,0,0,1-.5-.373C-698.259,98.99-698.439,98.651-698.631,98.276Z" transform="translate(-53.639 -30.019)" fill="#c2c2c2"/>
    <path id="Path_989" data-name="Path 989" d="M-663.651,101.276c.1-.564.187-1.165.308-1.759a.647.647,0,0,0-.218-.664c-.418-.389-.834-.781-1.232-1.19a.511.511,0,0,1-.147-.4c.025-.1.212-.191.34-.213.553-.095,1.109-.171,1.666-.237a.72.72,0,0,0,.636-.446c.233-.51.489-1.01.757-1.5.061-.112.211-.252.313-.247a.508.508,0,0,1,.342.248c.274.5.53,1.01.772,1.526a.687.687,0,0,0,.6.418c.557.069,1.114.142,1.667.237.137.024.342.118.367.216a.548.548,0,0,1-.164.416c-.391.4-.8.789-1.212,1.17a.641.641,0,0,0-.219.663c.113.54.207,1.085.282,1.631a.544.544,0,0,1-.107.436.537.537,0,0,1-.446-.026c-.515-.244-1.019-.512-1.521-.782a.657.657,0,0,0-.678,0c-.526.284-1.058.557-1.593.824C-663.433,101.746-663.659,101.61-663.651,101.276Z" transform="translate(-95.379 -30.019)" fill="#c2c2c2"/>
    <path id="Path_990" data-name="Path 990" d="M-707.271,144.187c.406.388.787.745,1.156,1.114a.327.327,0,0,1,.052.248c-.07.445-.149.888-.232,1.33a1.257,1.257,0,0,0,1.027,1.626.288.288,0,0,1,.162.173,3.507,3.507,0,0,1,.1.513c.034.238-.091.332-.311.224-.437-.214-.872-.434-1.3-.665a.648.648,0,0,0-.676,0c-.419.229-.846.443-1.276.65a.321.321,0,0,1-.271.012.333.333,0,0,1-.057-.267q.106-.667.239-1.329a.627.627,0,0,0-.2-.644q-.492-.442-.961-.911a1.406,1.406,0,0,1-.182-.307,1.535,1.535,0,0,1,.314-.127c.462-.077.926-.149,1.391-.206a.583.583,0,0,0,.485-.355C-707.646,144.919-707.469,144.577-707.271,144.187Z" transform="translate(-53.639 -75.932)" fill="#c2c2c2"/>
    <path id="Path_991" data-name="Path 991" d="M-583.86,144.214c.192.375.372.714.539,1.059a.6.6,0,0,0,.5.373c.484.058.966.131,1.448.21.089.015.217.071.239.137s-.057.181-.122.244c-.335.329-.675.654-1.023.968a.607.607,0,0,0-.2.621c.086.442.168.886.24,1.33.014.089,0,.24-.048.269a.372.372,0,0,1-.3-.015c-.431-.207-.856-.426-1.278-.65a.612.612,0,0,0-.627,0q-.632.339-1.279.648c-.087.042-.238.068-.294.022s-.041-.192-.051-.295a.913.913,0,0,1,.02-.108.523.523,0,0,1,.462-.576,1.121,1.121,0,0,0,.821-1.25c-.058-.529-.177-1.052-.25-1.58a.453.453,0,0,1,.085-.336C-584.623,144.929-584.257,144.593-583.86,144.214Z" transform="translate(-168.409 -75.957)" fill="#c2c2c2"/>
  </g>
</svg>
