<svg xmlns="http://www.w3.org/2000/svg" width="19.265" height="19.265" viewBox="0 0 19.265 19.265">
  <g id="Group_140" data-name="Group 140" transform="translate(578.25 486.06)">
    <path id="Path_992" data-name="Path 992" d="M-433.445-486.06c0,2.1.016,4.2,0,6.3a2.632,2.632,0,0,1-2.417,2.5,2.656,2.656,0,0,1-2.8-2.036,3.352,3.352,0,0,1-.074-.708c-.007-2.018-.005-4.036-.006-6.055Z" transform="translate(-132.501)" fill="#c2c2c2"/>
    <path id="Path_993" data-name="Path 993" d="M-572.681-486.06c0,2.017.007,4.034,0,6.051a2.781,2.781,0,0,1-2.532,2.745,2.82,2.82,0,0,1-2.962-2.169c-.023-.1-.049-.2-.074-.306v-.64l.064-.251c.428-1.7.853-3.406,1.288-5.107a1.347,1.347,0,0,1,.191-.324Z" fill="#c2c2c2"/>
    <path id="Path_994" data-name="Path 994" d="M-298.969-479.739c-.038.157-.069.317-.114.472a2.786,2.786,0,0,1-2.822,2.008,2.769,2.769,0,0,1-2.544-2.28,3.324,3.324,0,0,1-.044-.58q0-2.858,0-5.716c0-.075,0-.15-.005-.225h3.988a1.449,1.449,0,0,1,.187.328c.248.954.486,1.911.726,2.868q.316,1.261.63,2.523Z" transform="translate(-260.016)" fill="#c2c2c2"/>
    <path id="Path_995" data-name="Path 995" d="M-544.543-317.77a4.277,4.277,0,0,0,5.131,1.47v.185q0,4.373,0,8.746c0,.343-.074.417-.42.417h-4.76v-.236c0-1.881-.013-3.762.007-5.642a.807.807,0,0,0-.909-.9c-1.661.02-3.323.007-4.984.008a.733.733,0,0,0-.837.843q0,2.84,0,5.68v.234c-.063.005-.111.012-.159.012h-4.664c-.259,0-.356-.094-.356-.348q0-4.448,0-8.9c0-.036,0-.073.006-.11a4.287,4.287,0,0,0,5.164-1.467A4.1,4.1,0,0,0-544.543-317.77Z" transform="translate(-20.665 -159.843)" fill="#c2c2c2"/>
    <path id="Path_996" data-name="Path 996" d="M-420.665-202.92H-424.5v-5.317h3.838Z" transform="translate(-146.034 -263.885)" fill="#c2c2c2"/>
  </g>
</svg>
