<svg xmlns="http://www.w3.org/2000/svg" width="22" height="22" viewBox="0 0 22 22">
  <g id="Group_129" data-name="Group 129" transform="translate(-1163.253 -142.305)">
    <path id="Path_303" data-name="Path 303" d="M1163.253,153.959v-1.289c.013-.076.029-.151.039-.227.052-.4.083-.8.158-1.19a10.738,10.738,0,0,1,2.98-5.665,11.047,11.047,0,0,1,2.91-2.124,11.411,11.411,0,0,1,3.614-1.084,11.038,11.038,0,0,1,12.1,12.989,11.013,11.013,0,0,1-12.319,8.832,10.5,10.5,0,0,1-5.727-2.617,10.765,10.765,0,0,1-3.586-6.378C1163.35,154.794,1163.309,154.375,1163.253,153.959Zm10.986,2.48h7.063c.615,0,.892-.278.892-.891q0-2.233,0-4.465c0-.614-.277-.892-.891-.892h-14.1c-.615,0-.892.278-.892.891q0,2.211,0,4.423c0,.675.26.935.934.935Zm-7.639,3.817c1,1.317,4.034,3.1,5.242,3.088a7.453,7.453,0,0,1-1.6-2.018c-.132-.233-.115-.423.055-.528s.345-.043.493.188c.2.313.388.635.607.934a4.57,4.57,0,0,0,1.585,1.417,2.195,2.195,0,0,0,.931.282V158.81a19.908,19.908,0,0,0-3.892.438c.023.07.039.123.057.176s.045.121.063.182a.329.329,0,0,1-.192.438.325.325,0,0,1-.409-.218c-.057-.137-.105-.278-.176-.467Zm10.079-16.963a.69.69,0,0,0,.056.061,7.119,7.119,0,0,1,1.53,1.974.513.513,0,0,1,.034.395c-.1.237-.4.206-.565-.042-.21-.323-.4-.66-.63-.971a4.552,4.552,0,0,0-1.584-1.419,2.229,2.229,0,0,0-.933-.284v4.812a19.99,19.99,0,0,0,3.9-.438c-.046-.131-.088-.244-.124-.358a.323.323,0,1,1,.6-.218c.057.137.106.277.177.467l2.783-.906A10.038,10.038,0,0,0,1176.679,143.293Zm-12.8,10.354c.074.574.115,1.124.219,1.662a10.206,10.206,0,0,0,1.95,4.32.214.214,0,0,0,.3.083c.575-.216,1.152-.427,1.734-.624.357-.121.723-.212,1.083-.316-.123-.519-.248-1.017-.355-1.518-.029-.135-.082-.173-.212-.171-.487.006-.974.008-1.46,0a1.394,1.394,0,0,1-1.471-1.49c0-.573,0-1.145,0-1.718v-.227Zm1.785-.669c0-.644,0-1.266,0-1.887a1.409,1.409,0,0,1,1.547-1.545c.465,0,.931,0,1.4,0,.062,0,.166-.049.177-.094.133-.524.252-1.052.375-1.579a.314.314,0,0,0-.057-.035c-.935-.31-1.872-.616-2.8-.933-.117-.04-.163,0-.227.078a10.169,10.169,0,0,0-2.025,4.649c-.071.441-.1.889-.155,1.351Zm17.177.66c0,.661,0,1.289,0,1.918a2.1,2.1,0,0,1-.057.51,1.382,1.382,0,0,1-1.419,1.017c-.487,0-.974,0-1.46.006-.064,0-.171.06-.184.111-.133.517-.25,1.038-.372,1.563a.569.569,0,0,0,.076.039c.928.308,1.858.611,2.784.927.131.045.176-.005.241-.091a9.912,9.912,0,0,0,1.88-3.981c.14-.652.211-1.32.315-1.991a1.389,1.389,0,0,0-.162-.027Zm-3.5-5.781c.124.523.249,1.015.354,1.511.031.146.09.181.227.179.487-.007.974-.009,1.46,0a1.392,1.392,0,0,1,1.458,1.481c0,.573,0,1.145,0,1.718v.224h1.785c-.075-.572-.118-1.122-.222-1.661a10.2,10.2,0,0,0-1.941-4.3.228.228,0,0,0-.316-.085c-.815.286-1.635.559-2.454.834C1179.576,147.8,1179.459,147.824,1179.338,147.857Zm-4.757,15.779c.094-.015.163-.023.231-.038a3.615,3.615,0,0,0,1.864-1.16,8.513,8.513,0,0,0,1.576-2.587c.081-.194.152-.392.234-.6a19.867,19.867,0,0,0-3.905-.435Zm-.668-15.817v-4.824c-.086.014-.156.021-.224.036a3.615,3.615,0,0,0-1.864,1.159,8.51,8.51,0,0,0-1.576,2.586c-.081.194-.152.392-.233.6A20.021,20.021,0,0,0,1173.913,147.819Zm5.277,11.557c-.37.763-.683,1.476-1.056,2.157a6.862,6.862,0,0,1-1.451,1.823,10.179,10.179,0,0,0,5.239-3.091Zm-7.379-16.1a10.205,10.205,0,0,0-5.231,3.091l2.785.905A9.7,9.7,0,0,1,1171.811,143.274Zm2.1,5.26-4.13-.471-.368,1.47h4.5Zm-4.134,10.031,4.127-.467v-1h-4.491Zm9.3-1.462h-4.495v.993l4.13.469Zm-.364-9.038-4.132.468v1h4.5Z"/>
    <path id="Path_304" data-name="Path 304" d="M1369.056,317.335q-.191.678-.382,1.357c-.1.344-.186.455-.378.445-.275-.014-.305-.236-.361-.436q-.344-1.227-.692-2.454a.361.361,0,0,1,.092-.429c.193-.152.44-.044.521.231.132.452.257.907.386,1.36.013.047.031.093.066.2.13-.456.246-.86.361-1.264.025-.089.051-.178.073-.269.044-.183.135-.324.344-.319s.279.14.327.314c.123.448.251.894.378,1.34.013.047.031.093.064.195.072-.246.131-.442.188-.639.086-.3.167-.606.257-.907.073-.246.221-.344.42-.288.182.051.261.22.2.451q-.366,1.321-.739,2.641a.328.328,0,0,1-.647,0q-.214-.763-.431-1.524Z" transform="translate(-193.007 -164.13)"/>
    <path id="Path_305" data-name="Path 305" d="M1308.639,316.256v.735h1.007c.143,0,.287,0,.429,0a.321.321,0,1,1-.008.638c-.386.008-.773,0-1.16,0h-.266v.724c.074,0,.15.01.225.01.473,0,.945,0,1.417,0,.254,0,.4.124.4.316s-.145.323-.4.325c-.637,0-1.274.006-1.911,0-.287,0-.393-.121-.394-.415q0-1.289,0-2.577c0-.281.108-.4.381-.406q.977-.01,1.954,0a.332.332,0,0,1,.369.332c-.007.18-.147.3-.37.308-.05,0-.1,0-.15,0h-1.53Z" transform="translate(-136.959 -163.999)"/>
    <path id="Path_306" data-name="Path 306" d="M1247.494,317.818q0-.761,0-1.522a1.79,1.79,0,0,1,.005-.214.315.315,0,0,1,.621-.039.593.593,0,0,1,.017.148c0,.865,0,1.731,0,2.6,0,.31-.239.485-.472.35a.722.722,0,0,1-.193-.2q-.615-.813-1.224-1.629c-.042-.057-.087-.112-.153-.2-.01.082-.02.133-.021.184,0,.472,0,.944,0,1.416a.792.792,0,0,1-.039.273.255.255,0,0,1-.324.176.725.725,0,0,1-.266-.236c-.029-.035-.013-.111-.014-.168,0-.851,0-1.7,0-2.554,0-.176.026-.334.218-.4a.356.356,0,0,1,.418.181q.615.826,1.234,1.648c.05.067.1.133.153.2Z" transform="translate(-77.76 -164.17)"/>
    <path id="Path_307" data-name="Path 307" d="M1445.49,314.811a1.613,1.613,0,0,1,1.077.351.637.637,0,0,1,.263.6.445.445,0,0,1-.228.267.24.24,0,0,1-.34-.136c-.1-.361-.388-.422-.685-.419a2,2,0,0,0-.658.133c-.172.064-.176.2-.022.308a1.987,1.987,0,0,0,.423.2,9.569,9.569,0,0,1,.981.362,1.194,1.194,0,0,1,.458.454.724.724,0,0,1-.195.927,1.787,1.787,0,0,1-2.13,0,1.183,1.183,0,0,1-.276-.488.3.3,0,0,1,.214-.386.336.336,0,0,1,.4.227.546.546,0,0,0,.232.249,1.179,1.179,0,0,0,.937.017,1,1,0,0,0,.248-.208c-.072-.081-.13-.2-.22-.235-.248-.108-.512-.176-.764-.274a3.258,3.258,0,0,1-.678-.308.791.791,0,0,1,.079-1.412,5.145,5.145,0,0,1,.864-.279Z" transform="translate(-265.799 -163.193)"/>
  </g>
</svg>
