<svg xmlns="http://www.w3.org/2000/svg" width="26.305" height="22.562" viewBox="0 0 26.305 22.562">
  <g id="Group_126" data-name="Group 126" transform="translate(-983.626 -132.229)">
    <path id="Path_294" data-name="Path 294" d="M1009.531,144.21c-.063.434-.114.87-.192,1.3a10.478,10.478,0,0,1-2.274,4.884,10.78,10.78,0,0,1-5.661,3.641,11.114,11.114,0,0,1-2.856.354q-6.725,0-13.45,0c-.6,0-.963-.3-.979-.789a.8.8,0,0,1,.663-.838,1.929,1.929,0,0,1,.371-.026q3.686,0,7.373,0h.336l-.225-.165a4.793,4.793,0,0,1-.755-.565,1.9,1.9,0,0,0-1.646-.575c-.928.045-1.859.017-2.789.009a.805.805,0,0,1-.834-.9.817.817,0,0,1,.849-.744c.672-.007,1.345,0,2.018,0h.26a11.009,11.009,0,0,1-.5-11.791h-.265q-1.968,0-3.935,0a1.7,1.7,0,0,1-.443-.042.816.816,0,0,1,.043-1.57,1.738,1.738,0,0,1,.395-.038q2.6,0,5.206,0a.466.466,0,0,0,.387-.165,13.168,13.168,0,0,1,2.171-1.9h-.254q-1.918,0-3.836,0a.841.841,0,0,1-.914-.645.812.812,0,0,1,.689-1,1.632,1.632,0,0,1,.2-.012c3.462,0,6.925-.035,10.386.024a10.262,10.262,0,0,1,6.764,2.7,10.679,10.679,0,0,1,3.463,5.932c.089.421.126.852.188,1.279.012.081.03.161.045.241Zm-10.893,8.524a9.221,9.221,0,1,0-9.209-9.229A9.221,9.221,0,0,0,998.638,152.735Z" stroke="#fff" stroke-width="0.8"/>
    <path id="Path_295" data-name="Path 295" d="M1117.2,199.094a6.747,6.747,0,1,1-6.745,6.779A6.762,6.762,0,0,1,1117.2,199.094Zm4.532,4.4a5.152,5.152,0,0,0-3.7-2.686c0,.686.006,1.349,0,2.012a.282.282,0,0,0,.219.325,2.277,2.277,0,0,1,1.108.77.423.423,0,0,0,.616.159.9.9,0,0,1,.141-.047Zm.518,1.573c-.7.229-1.381.445-2.052.675-.049.017-.087.129-.092.2a3.043,3.043,0,0,1-.513,1.536.218.218,0,0,0-.024.192c.411.58.832,1.154,1.263,1.748A5.149,5.149,0,0,0,1122.25,205.072Zm-8.693,4.32c.035-.015.056-.018.064-.029.407-.555.816-1.109,1.214-1.671a.239.239,0,0,0-.014-.214,2.758,2.758,0,0,1-.495-1.489c0-.181-.089-.253-.254-.3-.4-.117-.788-.255-1.182-.382-.233-.075-.468-.147-.725-.227A5.124,5.124,0,0,0,1113.557,209.391Zm2.824-8.565a4.963,4.963,0,0,0-3.666,2.687c.67.217,1.338.436,2.009.645a.211.211,0,0,0,.179-.067,3.016,3.016,0,0,1,1.347-.985.236.236,0,0,0,.126-.173C1116.384,202.237,1116.381,201.54,1116.381,200.826Zm-1.461,9.571a5.145,5.145,0,0,0,4.573,0c-.432-.594-.843-1.164-1.262-1.727a.213.213,0,0,0-.185-.051,3.044,3.044,0,0,1-1.669,0,.233.233,0,0,0-.2.061C1115.758,209.237,1115.352,209.8,1114.92,210.4Zm2.292-5.8a1.245,1.245,0,0,0-.007,2.489,1.245,1.245,0,1,0,.007-2.489Z" transform="translate(-118.557 -62.328)" stroke="#fff" stroke-width="0.8"/>
  </g>
</svg>
