<svg xmlns="http://www.w3.org/2000/svg" width="23.558" height="20.65" viewBox="0 0 23.558 20.65">
  <g id="Group_169" data-name="Group 169" transform="translate(460.671 -40.43)">
    <path id="Path_360" data-name="Path 360" d="M-460.421,47.6v-.45c.065-.118.128-.237.194-.353,1.059-1.865,2.126-3.725,3.17-5.6a.9.9,0,0,1,.9-.523q7.274.016,14.547.007h.2a.632.632,0,0,1,.584.351q1.676,2.954,3.353,5.908a.793.793,0,0,1,.109.4,3.237,3.237,0,0,1-1.771,2.857.332.332,0,0,0-.208.341q.009,4.774,0,9.548c0,.527-.206.734-.735.734h-17.633c-.531,0-.734-.2-.734-.732q0-4.752,0-9.5a.391.391,0,0,0-.242-.413,3.175,3.175,0,0,1-1.295-1.246A4.172,4.172,0,0,1-460.421,47.6Zm3.123,12.074h1.99v-.313c0-1.877,0-3.753,0-5.63a1.95,1.95,0,0,1,2.09-2.077c.473,0,.947-.024,1.418.008a2.571,2.571,0,0,1,.91.2,1.868,1.868,0,0,1,1.1,1.815c0,1.914,0,3.828,0,5.743v.251h9.308v-9.08a3.364,3.364,0,0,1-2.927-1.452,3.268,3.268,0,0,1-2.73,1.444,3.279,3.279,0,0,1-2.739-1.429,3.355,3.355,0,0,1-5.5-.007,3.356,3.356,0,0,1-2.923,1.444Zm18.283-13.148c-.031-.063-.045-.1-.063-.127q-1.261-2.22-2.519-4.441c-.077-.136-.177-.135-.3-.135q-6.991,0-13.983,0a.328.328,0,0,0-.334.191c-.808,1.438-1.625,2.871-2.439,4.305-.035.062-.065.128-.106.209Zm-11.908,13.152c0-.055.008-.091.008-.127q0-2.97,0-5.94a.8.8,0,0,0-.822-.828c-.487-.008-.975,0-1.462,0-.668,0-.965.293-.965.955q0,2.846,0,5.692v.249Zm-8.3-12a2.127,2.127,0,0,0,2.256,1.768,2.1,2.1,0,0,0,1.961-1.768Zm5.481,0a2.142,2.142,0,0,0,2.29,1.769,2.082,2.082,0,0,0,1.923-1.769Zm5.487,0a2.131,2.131,0,0,0,2.166,1.774,2.109,2.109,0,0,0,2.05-1.774Zm5.475.009a2.143,2.143,0,0,0,2.151,1.769,2.135,2.135,0,0,0,2.082-1.769Z" transform="translate(0)" stroke="#fff" stroke-width="0.5"/>
    <path id="Path_361" data-name="Path 361" d="M-258.744,232.508c-.48,0-.961,0-1.441,0a1.554,1.554,0,0,1-1.656-1.665q-.006-1.092,0-2.184A1.557,1.557,0,0,1-260.177,227q1.452,0,2.9,0a1.557,1.557,0,0,1,1.667,1.657q.006,1.092,0,2.184a1.556,1.556,0,0,1-1.676,1.668C-257.769,232.51-258.257,232.508-258.744,232.508Zm0-1.132c.5,0,1,0,1.507,0,.342,0,.5-.155.5-.492q.006-1.125,0-2.25c0-.348-.161-.505-.514-.506q-1.473,0-2.947,0c-.353,0-.511.158-.513.507q0,1.113,0,2.227c0,.366.152.512.525.514C-259.7,231.378-259.225,231.376-258.745,231.376Z" transform="translate(-186.878 -175.341)" stroke="#fff" stroke-width="0.5"/>
  </g>
</svg>
