<svg id="timetable" xmlns="http://www.w3.org/2000/svg" width="23.754" height="23.754" viewBox="0 0 23.754 23.754">
  <path id="Path_54" data-name="Path 54" d="M22.362,13.559V2.134a.7.7,0,0,0-.7-.7H18.14V.7a.7.7,0,0,0-1.392,0v.742H13.965V.7a.7.7,0,0,0-1.392,0v.742H9.789V.7A.7.7,0,0,0,8.4.7v.742H5.614V.7A.7.7,0,1,0,4.222.7v.742H.7a.7.7,0,0,0-.7.7v18.14a.7.7,0,0,0,.7.7h11.59a6.261,6.261,0,1,0,10.077-7.412ZM4.222,2.83v.7a.7.7,0,1,0,1.392,0v-.7H8.4v.7a.7.7,0,0,0,1.392,0v-.7h2.784v.7a.7.7,0,1,0,1.392,0v-.7h2.784v.7a.7.7,0,1,0,1.392,0v-.7h2.83V5.614H1.392V2.83ZM1.392,19.578V7.006H20.97v5.28a6.256,6.256,0,0,0-8.734,1.8.692.692,0,0,0-.313-.075H10.532a.7.7,0,1,0,0,1.392h1.054a6.211,6.211,0,0,0-.319,1.392h-.735a.7.7,0,1,0,0,1.392h.735a6.2,6.2,0,0,0,.319,1.392Zm16.1,2.784a4.871,4.871,0,1,1,4.871-4.871A4.877,4.877,0,0,1,17.491,22.362Zm0,0" fill="#fff"/>
  <path id="Path_55" data-name="Path 55" d="M365.48,304.784h-2.088V302.7a.7.7,0,1,0-1.392,0v2.784a.7.7,0,0,0,.7.7h2.784a.7.7,0,1,0,0-1.392Zm0,0" transform="translate(-345.205 -287.989)" fill="#fff"/>
  <path id="Path_56" data-name="Path 56" d="M93.088,182H91.7a.7.7,0,1,0,0,1.392h1.392a.7.7,0,1,0,0-1.392Zm0,0" transform="translate(-86.778 -173.556)" fill="#fff"/>
  <path id="Path_57" data-name="Path 57" d="M93.088,242H91.7a.7.7,0,1,0,0,1.392h1.392a.7.7,0,1,0,0-1.392Zm0,0" transform="translate(-86.778 -230.773)" fill="#fff"/>
  <path id="Path_58" data-name="Path 58" d="M93.088,302H91.7a.7.7,0,0,0,0,1.392h1.392a.7.7,0,0,0,0-1.392Zm0,0" transform="translate(-86.778 -287.989)" fill="#fff"/>
  <path id="Path_59" data-name="Path 59" d="M212.7,183.392h1.392a.7.7,0,1,0,0-1.392H212.7a.7.7,0,0,0,0,1.392Zm0,0" transform="translate(-202.164 -173.556)" fill="#fff"/>
  <path id="Path_60" data-name="Path 60" d="M212.7,243.392h1.392a.7.7,0,1,0,0-1.392H212.7a.7.7,0,0,0,0,1.392Zm0,0" transform="translate(-202.164 -230.773)" fill="#fff"/>
  <path id="Path_61" data-name="Path 61" d="M93.088,362H91.7a.7.7,0,1,0,0,1.392h1.392a.7.7,0,1,0,0-1.392Zm0,0" transform="translate(-86.778 -345.205)" fill="#fff"/>
  <path id="Path_62" data-name="Path 62" d="M332.7,183.392h1.392a.7.7,0,1,0,0-1.392H332.7a.7.7,0,1,0,0,1.392Zm0,0" transform="translate(-316.597 -173.556)" fill="#fff"/>
</svg>
