<svg xmlns="http://www.w3.org/2000/svg" width="21.605" height="21.597" viewBox="0 0 21.605 21.597">
  <g id="Group_127" data-name="Group 127" transform="translate(-988.475 -343.936)">
    <path id="Path_296" data-name="Path 296" d="M999.275,359.636q-4.123,0-8.245,0a2.182,2.182,0,0,1-2.179-1.675,2.581,2.581,0,0,1-.066-.6q-.006-5.413,0-10.827a2.193,2.193,0,0,1,2.281-2.29q8.212,0,16.424,0a2.2,2.2,0,0,1,2.292,2.3q0,5.391,0,10.783a2.2,2.2,0,0,1-2.325,2.314Zm.006-1.4h8.134c.67,0,.965-.291.965-.953V346.59c0-.654-.3-.953-.943-.953H991.123c-.647,0-.943.3-.943.953v10.693c0,.662.294.953.964.953Z" transform="translate(0)" stroke="#fff" stroke-width="0.6"/>
    <path id="Path_297" data-name="Path 297" d="M1005.59,363.237c.878,0,1.752,0,2.625,0a.7.7,0,1,1,.012,1.4c-.817,0-1.633,0-2.449,0a.233.233,0,0,0-.264.182,2.422,2.422,0,0,1-4.537-.007c-.062-.167-.155-.173-.294-.173q-5.532,0-11.063,0a1.229,1.229,0,0,1-.366-.043.689.689,0,0,1-.469-.751.706.706,0,0,1,.654-.6c.072,0,.146,0,.218,0q5.51,0,11.019,0c.156,0,.241-.024.3-.191a2.425,2.425,0,0,1,4.523-.021Zm-3.387.7a1.044,1.044,0,0,0,1.056,1.049,1.049,1.049,0,1,0-.022-2.1A1.041,1.041,0,0,0,1002.2,363.937Z" transform="translate(0 -1.151)" stroke="#fff" stroke-width="0.6"/>
    <path id="Path_298" data-name="Path 298" d="M997.031,352.178c0-1.13,0-2.259,0-3.389a.733.733,0,0,1,.369-.715.722.722,0,0,1,.782.065q2.73,1.711,5.462,3.417a.7.7,0,0,1,0,1.256q-2.748,1.725-5.5,3.44a.7.7,0,0,1-.764.037.706.706,0,0,1-.353-.659C997.033,354.481,997.031,353.329,997.031,352.178Zm1.409,2.244,3.57-2.236-3.57-2.233Z" transform="translate(-0.551 -0.25)" stroke="#fff" stroke-width="0.6"/>
  </g>
</svg>
